GIL02_fast3_RRA_states
nRows=8
nColumns=47

# SIMM Motion File Header:
name GIL02_fast3_RRA_states
datacolumns 47
datarows 8
otherdata 1
range 0.10167000000000000000 0.10167126999999999000
endheader
time	pelvis_tx	pelvis_ty	pelvis_tz	pelvis_tilt	pelvis_list	pelvis_rotation	hip_flexion_r	hip_adduction_r	hip_rotation_r	knee_angle_r	ankle_angle_r	subtalar_angle_r	mtp_angle_r	hip_flexion_l	hip_adduction_l	hip_rotation_l	knee_angle_l	ankle_angle_l	subtalar_angle_l	mtp_angle_l	lumbar_extension	lumbar_bending	lumbar_rotation	pelvis_tx_u	pelvis_ty_u	pelvis_tz_u	pelvis_tilt_u	pelvis_list_u	pelvis_rotation_u	hip_flexion_r_u	hip_adduction_r_u	hip_rotation_r_u	knee_angle_r_u	ankle_angle_r_u	subtalar_angle_r_u	mtp_angle_r_u	hip_flexion_l_u	hip_adduction_l_u	hip_rotation_l_u	knee_angle_l_u	ankle_angle_l_u	subtalar_angle_l_u	mtp_angle_l_u	lumbar_extension_u	lumbar_bending_u	lumbar_rotation_u
      0.10167000000000000000	      0.54663267438247398000	      0.93151379682178848000	     -0.19873295386207424000	      0.21892620122421444000	     -2.44782622867334390000	      3.32057623558950480000	     20.26863625213194800000	      3.43164980637164650000	      2.96080907035508330000	    -16.89295332714149500000	     -2.96890766882501290000	      0.00000000000000000000	      0.00000000000000000000	     -5.69573312694440400000	     -4.97704583506950990000	     -5.37626450850145150000	    -44.31482171341384200000	    -35.48475182358682600000	      0.00000000000000000000	      0.00000000000000000000	     -1.93882064461045860000	      6.49781774461656170000	     -4.42015531476673120000	      1.55330940904144940000	      0.12169887840223678000	      0.09426946497148872000	    -11.63637208717358700000	    -40.58787023252701700000	     -7.55921437517434210000	    -80.23364206680747700000	     61.90274418677378800000	     35.05411735634322000000	    -18.11848926121387000000	    109.87126465499303000000	      0.00000000000000000000	      0.00000000000000000000	    207.83551507005393000000	    -62.73702061055894300000	      2.32961801142915050000	   -334.63195953838618000000	    134.95895229603107000000	      0.00000000000000000000	      0.00000000000000000000	     15.30683838221374400000	     56.69035118472267200000	     43.47204970688015600000
      0.10167000999999999000	      0.54663268991556790000	      0.93151379803877732000	     -0.19873295291937965000	      0.21892608486050263000	     -2.44782663455201450000	      3.32057615999737980000	     20.26863544979551400000	      3.43165042539905140000	      2.96080942089624170000	    -16.89295350832637900000	     -2.96890657011240890000	     -0.00000000000000000000	      0.00000000000000000000	     -5.69573104858924760000	     -4.97704646243965420000	     -5.37626448520519510000	    -44.31482505973339400000	    -35.48475047399716000000	     -0.00000000000000000000	      0.00000000000000000000	     -1.93882049154209190000	      6.49781831152003160000	     -4.42015488004623420000	      1.55330938007085820000	      0.12169888234760232000	      0.09426945401773650900	    -11.63637027246993200000	    -40.58786392386204500000	     -7.55921063788655890000	    -80.23364487914436400000	     61.90273673338521800000	     35.05411429397442200000	    -18.11848726977678600000	    109.87125613479135000000	      0.00000000000000000027	     -0.00000000000000000011	    207.83551629194400000000	    -62.73700822987547100000	      2.32963334729701190000	   -334.63195046117630000000	    134.95898057224835000000	     -0.00000000000000000006	     -0.00000000000000000001	     15.30683489739791400000	     56.69034285239694500000	     43.47204958590867100000
      0.10167002999999999000	      0.54663272098175497000	      0.93151380047275500000	     -0.19873295103399077000	      0.21892585213313345000	     -2.44782744630916720000	      3.32057600881324210000	     20.26863384512256200000	      3.43165166345363650000	      2.96081012197846640000	    -16.89295387069608600000	     -2.96890437268745670000	      0.00000000000000000000	     -0.00000000000000000000	     -5.69572689187889750000	     -4.97704771717957150000	     -5.37626443861222110000	    -44.31483175237221400000	    -35.48474777481698100000	     -0.00000000000000000000	      0.00000000000000000000	     -1.93882018540546390000	      6.49781944532672200000	     -4.42015401060524480000	      1.55330932212969120000	      0.12169889023835634000	      0.09426943211023711100	    -11.63636664305019900000	    -40.58785130653899400000	     -7.55920316331251120000	    -80.23365050382750500000	     61.90272182662186400000	     35.05410816923301800000	    -18.11848328692994100000	    109.87123909461717000000	      0.00000000000000000115	     -0.00000000000000000159	    207.83551873570505000000	    -62.73698346851350700000	      2.32966401902491290000	   -334.63193230674204000000	    134.95903712467802000000	     -0.00000000000000000010	      0.00000000000000000002	     15.30682792775435700000	     56.69032618775388200000	     43.47204934396860000000
      0.10167007000000000000	      0.54663278311412555000	      0.93151380534071093000	     -0.19873294726321436000	      0.21892538667861292000	     -2.44782906982271480000	      3.32057570644541440000	     20.26863063577631500000	      3.43165413956191310000	      2.96081152414254810000	    -16.89295459543526000000	     -2.96889997783857450000	      0.00000000000000000000	     -0.00000000000000000000	     -5.69571857845805060000	     -4.97705022665791930000	     -5.37626434542443390000	    -44.31484513764878800000	    -35.48474237645322700000	     -0.00000000000000000000	     -0.00000000000000000000	     -1.93881957313262540000	      6.49782171293910250000	     -4.42015227172328110000	      1.55330920624741920000	      0.12169890601995621000	      0.09426938829525834100	    -11.63635938416104800000	    -40.58782607192039600000	     -7.55918821417048200000	    -80.23366175323120300000	     61.90269201315022200000	     35.05409591973494800000	    -18.11847532134555300000	    109.87120501518557000000	      0.00000000000000000276	     -0.00000000000000000366	    207.83552362315066000000	    -62.73693394580953300000	      2.32972536244943030000	   -334.63189599781577000000	    134.95915022951783000000	     -0.00000000000000000027	     -0.00000000000000000012	     15.30681398841965000000	     56.69029285850131600000	     43.47204886010008100000
      0.10167015000000000000	      0.54663290737885273000	      0.93151381507662467000	     -0.19873293972166681000	      0.21892445577044289000	     -2.44783231684678130000	      3.32057510171155320000	     20.26862421708247600000	      3.43165909177488930000	      2.96081432846924160000	    -16.89295604491264800000	     -2.96889118814489940000	      0.00000000000000000000	     -0.00000000000000000000	     -5.69570195161576900000	     -4.97705524560867300000	     -5.37626415904149720000	    -44.31487190819756000000	    -35.48473157971216100000	     -0.00000000000000000000	     -0.00000000000000000000	     -1.93881834858862170000	      6.49782624815986500000	     -4.42014879395941040000	      1.55330897448312320000	      0.12169893758352326000	      0.09426930066538091700	    -11.63634486618400600000	    -40.58777560279327900000	     -7.55915831591068790000	    -80.23368425218822600000	     61.90263238642724300000	     35.05407142067775800000	    -18.11845939061399200000	    109.87113685998942000000	      0.00000000000000000401	     -0.00000000000000000502	    207.83553339773593000000	    -62.73683490048138400000	      2.32984804917332240000	   -334.63182337973183000000	    134.95937643911950000000	     -0.00000000000000000041	     -0.00000000000000000003	     15.30678610955988400000	     56.69022620013038200000	     43.47204789240949900000
      0.10167031000000000000	      0.54663315590825157000	      0.93151383454845971000	     -0.19873292463859271000	      0.21892259395758723000	     -2.44783881088280260000	      3.32057389225100640000	     20.26861137968939600000	      3.43166899618653080000	      2.96081993711674900000	    -16.89295894386359700000	     -2.96887360877390580000	      0.00000000000000000000	     -0.00000000000000000000	     -5.69566869792886180000	     -4.97706528348641000000	     -5.37626378624617910000	    -44.31492544927768100000	    -35.48470998617573700000	     -0.00000000000000000000	      0.00000000000000000000	     -1.93881589950730480000	      6.49783531858539120000	     -4.42014183843190360000	      1.55330851095552340000	      0.12169900071212653000	      0.09426912540594657700	    -11.63631582943495200000	    -40.58767466497926100000	     -7.55909851948815880000	    -80.23372925070076200000	     61.90251313386247700000	     35.05402242231919300000	    -18.11842753089970900000	    109.87100056426542000000	      0.00000000000000000008	      0.00000000000000000661	    207.83555294568274000000	    -62.73663681014423300000	      2.33009342212054000000	   -334.63167814263841000000	    134.95982885801081000000	     -0.00000000000000000011	      0.00000000000000000009	     15.30673035107892900000	     56.69009288392531700000	     43.47204595721414900000
      0.10167063000000000000	      0.54663365296682676000	      0.93151387349216008000	     -0.19873289447252868000	      0.21891887034581398000	     -2.44785179890639570000	      3.32057147335861510000	     20.26858570488163400000	      3.43168880495257330000	      2.96083115438824460000	    -16.89296474175021600000	     -2.96883845009733260000	      0.00000000000000000000	      0.00000000000000000000	     -5.69560219054566460000	     -4.97708535914680090000	     -5.37626304053776490000	    -44.31503253136821000000	    -35.48466679888572600000	     -0.00000000000000000000	      0.00000000000000000000	     -1.93881100137143550000	      6.49785345937245310000	     -4.42012792737781620000	      1.55330758390429270000	      0.12169912697520970000	      0.09426877488835992700	    -11.63625775275696100000	    -40.58747279111212700000	     -7.55897892703131370000	    -80.23381925011986500000	     61.90227463225769400000	     35.05392442462535000000	    -18.11836381846641700000	    109.87072803149104000000	      0.00000000000000000612	      0.00000000000000000985	    207.83559203668139000000	    -62.73624063074654300000	      2.33058416601273110000	   -334.63138766474930000000	    134.96073369454538000000	     -0.00000000000000000033	      0.00000000000000000025	     15.30661883107133600000	     56.68982625366238200000	     43.47204208756671300000
      0.10167126999999999000	      0.54663464708308718000	      0.93151395137968218000	     -0.19873283414073709000	      0.21891142317802448000	     -2.44787777475978440000	      3.32056663568864030000	     20.26853435517971400000	      3.43172842225570030000	      2.96085358883715650000	    -16.89297633746229000000	     -2.96876813300575510000	      0.00000000000000000000	      0.00000000000000000000	     -5.69546917574174840000	     -4.97712551008725070000	     -5.37626154864982380000	    -44.31524669527040300000	    -35.48458042343707300000	     -0.00000000000000000000	      0.00000000000000000000	     -1.93880120520675940000	      6.49788974069061440000	     -4.42010010527335600000	      1.55330572981770750000	      0.12169937952488268000	      0.09426807385831448300	    -11.63614158668137800000	    -40.58706905042129900000	     -7.55873974367032720000	    -80.23399925853442500000	     61.90179764314690700000	     35.05372842533078900000	    -18.11823642158043400000	    109.87018320064014000000	      0.00000000000000002015	      0.00000000000000001487	    207.83567019909876000000	    -62.73544827705746500000	      2.33156564578832400000	   -334.63080669416252000000	    134.96254336262240000000	     -0.00000000000000000259	      0.00000000000000000241	     15.30639577887334300000	     56.68929300172511200000	     43.47203435124470200000
